<?xml version="1.0" standalone="no"?>
<!DOCTYPE svg PUBLIC "-//W3C//DTD SVG 20010904//EN"
 "http://www.w3.org/TR/2001/REC-SVG-20010904/DTD/svg10.dtd">
<svg version="1.0" xmlns="http://www.w3.org/2000/svg"
 width="124.000000pt" height="124.000000pt" viewBox="0 0 124.000000 124.000000"
 preserveAspectRatio="xMidYMid meet">
<metadata>
Created by potrace 1.11, written by Peter Selinger 2001-2013
</metadata>
<g transform="translate(0.000000,124.000000) scale(0.100000,-0.100000)"
fill="#000000" stroke="none">
<path d="M563 1003 c-24 -8 -43 -19 -43 -24 0 -4 -7 -6 -15 -3 -8 4 -15 2 -15
-3 0 -5 -20 -19 -45 -32 -24 -12 -62 -43 -85 -68 -38 -43 -48 -43 -41 0 0 4
-4 7 -9 7 -6 0 -10 -4 -10 -10 0 -5 -7 -10 -15 -10 -8 0 -15 -5 -15 -11 0 -6
9 -8 20 -4 11 3 21 3 21 -2 6 -35 5 -52 -2 -48 -4 3 -20 -11 -36 -30 l-29 -35
-18 41 c-10 22 -20 38 -23 35 -11 -11 20 -107 41 -124 17 -14 21 -28 21 -77 0
-57 1 -60 25 -61 14 -1 70 -5 125 -8 55 -4 150 -9 210 -11 97 -5 137 -8 155
-15 3 -1 -8 -6 -25 -9 -16 -4 -35 -4 -40 0 -6 4 -17 4 -25 -1 -13 -9 -13 -10
0 -11 10 0 8 -3 -5 -8 -11 -5 -33 -4 -49 0 -16 5 -48 6 -73 3 -28 -3 -54 0
-73 10 -17 8 -32 10 -35 5 -6 -9 -32 -8 -50 2 -22 13 -64 19 -70 9 -3 -5 -20
-7 -38 -4 -44 6 -48 6 -82 -1 -16 -4 -41 -8 -54 -10 -14 -1 -29 -9 -35 -17 -6
-8 -17 -13 -23 -11 -7 3 -16 -4 -19 -14 -3 -10 -8 -25 -11 -33 -10 -26 -14
-60 -7 -60 12 0 64 34 64 43 0 4 5 5 10 2 6 -3 18 1 27 10 14 15 18 15 27 3
13 -17 34 -17 63 -1 17 11 22 10 27 -3 5 -13 9 -13 35 1 37 18 38 18 44 1 4
-10 1 -13 -7 -10 -27 10 -25 -13 4 -48 67 -82 215 -148 329 -148 70 0 160 23
221 56 80 43 178 146 149 156 -6 2 4 4 24 5 50 1 95 31 108 71 14 42 7 50 -22
23 -20 -19 -59 -29 -59 -16 0 3 16 19 35 36 19 17 35 35 35 40 0 5 -13 -5 -30
-23 l-29 -33 3 57 c11 172 -77 316 -242 395 -71 34 -84 37 -177 39 -67 1 -114
-3 -142 -13z m69 -101 c-7 -2 -9 -9 -5 -15 3 -7 2 -8 -2 -4 -16 14 -14 36 3
29 10 -4 12 -7 4 -10z m-71 -9 c13 -16 12 -17 -3 -4 -10 7 -18 15 -18 17 0 8
8 3 21 -13z m-221 -163 c-8 -5 -17 -7 -19 -4 -3 3 1 9 9 14 8 5 17 7 19 4 3
-3 -1 -9 -9 -14z m74 2 c3 -5 -1 -9 -9 -9 -8 0 -12 4 -9 9 3 4 7 8 9 8 2 0 6
-4 9 -8z m-36 -47 c-3 -3 -9 2 -12 12 -6 14 -5 15 5 6 7 -7 10 -15 7 -18z
m483 -88 c-6 -8 -9 -16 -6 -19 3 -2 -2 -5 -10 -5 -13 0 -13 3 2 19 19 21 31
25 14 5z m14 -55 c-3 -3 -11 0 -18 7 -9 10 -8 11 6 5 10 -3 15 -9 12 -12z
m159 -73 c-7 -12 -54 -12 -54 0 0 5 6 11 13 14 18 6 48 -4 41 -14z m-254 7 c0
-3 -4 -8 -10 -11 -5 -3 -10 -1 -10 4 0 6 5 11 10 11 6 0 10 -2 10 -4z m73 -15
c18 -1 25 -31 6 -31 -5 0 -7 -6 -3 -12 5 -10 4 -10 -6 -1 -8 7 -19 9 -29 4
-11 -6 -21 -4 -30 7 -13 14 -12 15 7 10 26 -7 29 7 5 21 -15 9 -14 10 7 7 14
-3 33 -5 43 -5z m-360 -52 c3 -12 0 -19 -9 -19 -8 0 -14 7 -14 15 0 8 -5 15
-11 15 -5 0 -8 4 -4 10 9 14 32 1 38 -21z m234 11 c1 -11 -2 -20 -8 -20 -10 0
-12 23 -2 33 9 9 9 10 10 -13z m-28 1 c6 -2 -21 -31 -30 -31 -5 0 -9 8 -9 18
0 14 -2 15 -10 2 -5 -8 -10 -10 -10 -4 0 16 8 21 33 19 12 -1 24 -3 26 -4z
m71 3 c0 -8 -19 -13 -24 -6 -3 5 1 9 9 9 8 0 15 -2 15 -3z m-360 -14 c0 -5 -4
-10 -10 -10 -5 0 -10 5 -10 10 0 6 5 10 10 10 6 0 10 -4 10 -10z m27 -15 c-4
-8 -12 -15 -19 -14 -10 0 -10 2 0 6 6 2 12 12 12 21 0 8 3 13 6 9 4 -3 4 -13
1 -22z m193 3 c0 -9 -67 -5 -75 4 -3 3 13 4 35 4 22 0 40 -4 40 -8z m299 -5
c0 -11 -3 -13 -6 -5 -2 6 -10 9 -15 6 -7 -4 -8 -2 -4 4 11 18 26 14 25 -5z"/>
<path d="M205 952 c-24 -16 -76 -92 -70 -102 11 -17 23 -11 29 15 4 15 14 25
24 25 12 0 13 3 5 8 -10 6 -10 12 2 28 14 18 14 18 13 -6 -1 -36 19 -80 37
-80 12 0 13 5 4 27 -5 14 -8 32 -5 40 3 7 2 13 -3 13 -4 0 -12 9 -17 20 -5 11
-14 16 -19 12z"/>
<path d="M40 715 c-5 -14 -14 -25 -20 -25 -13 0 -13 13 0 28 5 7 3 6 -5 -1
-21 -18 -10 -42 19 -43 19 -1 23 3 24 32 2 40 -5 43 -18 9z"/>
<path d="M74 688 c-6 -9 -6 -9 24 -12 12 -2 22 3 22 10 0 14 -38 15 -46 2z"/>
<path d="M1220 672 c-46 -15 -61 -68 -19 -68 14 0 22 11 29 35 11 39 11 40
-10 33z"/>
</g>
</svg>
