<?xml version="1.0" encoding="utf-8"?>
<!-- Generator: Adobe Illustrator 15.0.0, SVG Export Plug-In . SVG Version: 6.00 Build 0)  -->
<!DOCTYPE svg PUBLIC "-//W3C//DTD SVG 1.1//EN" "http://www.w3.org/Graphics/SVG/1.1/DTD/svg11.dtd">
<svg version="1.1" id="Layer_1" xmlns="http://www.w3.org/2000/svg" xmlns:xlink="http://www.w3.org/1999/xlink" x="0px" y="0px"
	 width="800px" height="800px" viewBox="450.395 450.395 800 800" enable-background="new 450.395 450.395 800 800"
	 xml:space="preserve">
<path id="google-plus-circle-icon" fill="#444444" d="M883.31,995.364c0,39.313-31.925,70.028-98.019,70.028
	c-51.699,0-89.034-32.726-89.034-72.038c0-38.523,43.811-71.761,95.508-71.192C849.124,922.163,883.31,957.885,883.31,995.364z
	 M1250.395,850.395c0,220.913-179.085,400-400.001,400c-220.913,0-399.999-179.087-399.999-400c0-220.915,179.086-400,399.999-400
	C1071.31,450.395,1250.395,629.48,1250.395,850.395z M927.845,990.792c0-36.294-13.555-60.007-54.559-90.728
	c-41.585-30.328-51.746-47.463-12.053-78.151c22.368-17.294,38.039-40.346,38.039-68.809c0-31.007-12.679-59.14-36.521-72.8h33.794
	l28.771-30.196c0,0-108.455,0-128.744,0c-80.368,0-119.776,48.174-119.776,101.16c0,54.155,37.149,96.805,109.691,96.805
	c-11.247,22.706-6.729,43.677,11.673,58.673c-123.898,0-150.409,54.365-150.409,96.245c0,54.263,62.375,86.521,137.169,86.521
	C887.19,1089.512,927.845,1035.314,927.845,990.792z M1095.754,715.444h-59.398V656.05h-29.694v59.394h-59.395v29.697h59.395v59.394
	h29.694V745.14h59.398V715.444z M847.545,755.043c-5.986-45.565-35.672-82.949-70.358-83.992
	c-34.696-1.033-57.968,33.838-51.974,79.417c5.99,45.566,38.966,77.395,73.669,78.441
	C833.566,829.942,853.528,800.613,847.545,755.043z"/>
</svg>
